<?xml version="1.0" standalone="no"?>
<!DOCTYPE svg PUBLIC "-//W3C//DTD SVG 20010904//EN"
 "http://www.w3.org/TR/2001/REC-SVG-20010904/DTD/svg10.dtd">
<svg version="1.0" xmlns="http://www.w3.org/2000/svg"
 width="493.000000pt" height="493.000000pt" viewBox="0 0 493.000000 493.000000"
 preserveAspectRatio="xMidYMid meet">
<metadata>
Created by potrace 1.11, written by Peter Selinger 2001-2013
</metadata>
<g transform="translate(0.000000,493.000000) scale(0.100000,-0.100000)"
fill="#000000" stroke="none">
<path d="M284 3528 c-127 -99 -216 -246 -250 -413 -9 -42 -4 -213 8 -265 12
-51 87 -210 100 -210 4 0 8 -6 8 -13 0 -16 114 -133 161 -164 40 -26 59 -24
59 7 0 12 -16 30 -42 47 -174 109 -276 352 -243 573 15 101 32 147 84 230 34
54 156 180 173 180 11 0 6 33 -7 42 -15 11 -20 10 -51 -14z"/>
<path d="M1127 3543 c-15 -15 -5 -40 20 -54 99 -51 226 -215 249 -324 36 -160
25 -285 -34 -420 -27 -61 -33 -71 -64 -106 -10 -10 -18 -21 -18 -24 0 -8 -39
-45 -87 -83 -37 -29 -47 -51 -31 -68 14 -13 49 9 110 69 62 62 108 118 108
135 0 4 6 14 13 21 6 6 12 15 13 19 0 4 8 25 18 47 81 186 46 454 -81 622 -78
103 -192 191 -216 166z"/>
<path d="M369 3338 c-56 -55 -94 -99 -92 -108 0 -3 -8 -22 -18 -42 -25 -48
-33 -97 -32 -183 0 -81 6 -118 23 -160 8 -16 14 -32 14 -35 6 -24 69 -105 114
-146 45 -41 59 -50 73 -41 15 9 15 47 0 47 -11 0 -105 93 -118 117 -44 79 -62
144 -58 221 2 42 5 84 7 93 6 26 80 169 87 169 3 0 25 18 48 39 41 39 42 40
24 60 l-19 21 -53 -52z"/>
<path d="M1039 3364 c-11 -13 -4 -23 49 -70 91 -81 143 -202 136 -314 -5 -69
-5 -71 -31 -137 -3 -10 -7 -20 -8 -23 -6 -27 -43 -76 -85 -113 -54 -48 -58
-58 -35 -77 12 -10 25 -1 75 48 33 33 60 65 60 71 0 6 5 11 10 11 6 0 10 7 10
15 0 9 7 26 15 38 41 63 51 249 17 313 -5 11 -10 23 -10 27 0 35 -114 197
-138 197 -3 0 -12 7 -20 15 -19 19 -28 19 -45 -1z"/>
<path d="M465 3193 c-20 -21 -39 -49 -42 -63 -3 -14 -10 -28 -15 -31 -6 -4
-11 -38 -13 -78 -5 -90 20 -154 83 -217 l44 -45 16 22 c14 21 14 24 -10 44
-47 41 -81 106 -83 160 -2 55 13 125 26 125 5 0 9 5 9 11 0 6 14 27 31 46 54
63 12 87 -46 26z"/>
<path d="M961 3213 c-8 -14 -3 -25 24 -53 91 -94 91 -233 -1 -331 -28 -29 -29
-35 -10 -55 12 -12 20 -7 58 34 46 52 75 124 72 182 -4 87 -17 129 -56 174
-10 11 -18 22 -18 26 0 3 -13 14 -29 23 -28 17 -30 17 -40 0z"/>
<path d="M729 3131 c-29 -7 -69 -38 -85 -66 -12 -23 -9 -97 6 -125 16 -29 80
-58 118 -54 125 14 148 192 31 238 -22 9 -40 15 -42 15 -1 -1 -13 -4 -28 -8z"/>
<path d="M647 2747 c-8 -7 -24 -39 -37 -72 -22 -58 -42 -108 -60 -150 -5 -11
-23 -56 -40 -100 -18 -44 -36 -89 -41 -100 -4 -11 -18 -45 -29 -75 -11 -30
-24 -64 -29 -75 -5 -11 -37 -92 -71 -180 -78 -202 -148 -381 -164 -420 -7 -16
-19 -46 -26 -65 -6 -19 -16 -44 -20 -55 -29 -72 -55 -142 -56 -152 -3 -18 12
-20 146 -18 121 1 170 12 170 36 0 6 12 41 27 77 14 37 26 73 26 79 0 7 4 13
9 13 4 0 7 3 6 8 -2 6 6 32 32 97 41 104 53 131 61 139 10 11 391 9 400 -2 3
-4 11 -23 18 -42 7 -19 17 -44 22 -55 16 -38 117 -300 123 -322 15 -49 -83
-46 1904 -48 1027 -1 1872 0 1878 2 12 4 13 327 1 339 -4 4 -814 8 -1799 8
l-1792 1 -29 75 c-16 41 -47 122 -68 180 -22 58 -44 114 -49 125 -5 11 -23 56
-40 100 -18 44 -36 89 -41 100 -4 11 -18 47 -30 80 -11 33 -27 74 -34 90 -12
29 -25 62 -99 252 -20 51 -36 97 -36 102 0 5 -6 16 -14 24 -19 18 -197 21
-219 4z m141 -587 c67 -178 82 -223 77 -230 -3 -4 -55 -7 -116 -6 -97 1 -112
3 -121 20 -8 14 -7 17 1 12 6 -4 11 -1 11 8 0 23 1 25 27 84 12 29 23 57 23
61 0 5 12 37 27 70 31 70 38 68 71 -19z m3627 -600 c-3 -5 -12 -10 -18 -10 -7
0 -6 4 3 10 19 12 23 12 15 0z m-2639 -9 c-4 -5 -2 -11 3 -13 4 -1 12 -14 16
-28 7 -21 6 -23 -7 -12 -22 18 -43 -7 -22 -26 11 -10 14 -10 15 0 0 7 7 -2 15
-20 22 -51 8 -75 -51 -86 -15 -3 -35 15 -35 31 0 10 6 13 18 8 29 -11 36 -10
37 5 0 8 -12 27 -28 41 -32 29 -31 63 3 74 10 3 21 12 24 20 3 8 8 15 11 15 4
0 4 -4 1 -9z m1618 -13 c3 -21 37 -68 46 -63 4 3 11 -6 14 -20 9 -36 27 -31
25 8 -2 17 5 46 14 62 16 30 16 30 18 5 3 -48 -1 -153 -6 -159 -3 -3 -30 22
-61 55 -48 52 -55 56 -53 34 3 -58 -1 -87 -15 -87 -10 0 -15 12 -15 36 -1 20
-2 53 -4 74 -1 20 2 37 6 37 5 0 6 7 3 16 -3 8 -2 12 4 9 6 -3 10 -1 10 6 0
15 11 5 14 -13z m-964 -13 c5 3 8 -29 7 -71 -1 -52 -6 -79 -14 -82 -8 -2 -13
6 -14 20 -2 51 -7 104 -9 113 -2 6 1 19 6 30 8 18 9 18 12 2 2 -9 7 -15 12
-12z m390 15 c-8 -5 -10 -10 -5 -10 12 0 12 -146 1 -158 -5 -4 -23 10 -41 31
-17 20 -38 37 -44 37 -7 0 -10 4 -7 9 3 5 -1 14 -9 21 -13 11 -15 5 -15 -42 0
-42 -3 -55 -15 -55 -14 0 -17 24 -17 122 0 28 2 33 22 38 14 3 21 -1 26 -16 7
-22 54 -77 65 -77 3 0 6 16 7 35 2 41 17 75 35 75 7 0 6 -4 -3 -10z m-1372
-43 c0 -18 1 -36 2 -42 1 -5 2 -27 1 -47 -1 -27 -6 -38 -16 -38 -16 0 -17 4
-19 90 -2 66 1 80 19 73 9 -3 14 -18 13 -36z m120 34 c19 -1 14 -22 -7 -28
-16 -4 -19 -15 -20 -65 0 -34 -3 -63 -6 -66 -14 -14 -29 23 -28 72 0 31 -2 55
-6 54 -20 -2 -31 4 -31 16 0 14 37 24 70 20 8 -2 21 -3 28 -3z m382 -4 c27
-13 53 -43 57 -67 1 -8 -5 -29 -13 -46 -39 -81 -157 -52 -156 38 0 39 6 52 32
69 31 19 48 21 80 6z m120 -60 c-7 -48 4 -92 20 -82 5 3 10 2 10 -3 0 -13 -35
-21 -51 -12 -15 10 -19 138 -5 158 18 25 34 -13 26 -61z m89 66 c-1 -5 0 -12
1 -18 1 -5 2 -33 1 -62 0 -44 3 -53 21 -58 29 -10 36 8 32 71 -2 30 -1 55 4
55 10 2 49 6 97 10 57 4 75 -9 44 -31 -20 -16 -22 -25 -20 -74 2 -37 -1 -56
-9 -56 -6 0 -9 4 -6 9 4 5 1 11 -5 13 -7 2 -11 24 -11 54 1 34 -3 51 -11 51
-6 0 -16 2 -22 3 -21 5 -36 0 -30 -11 15 -23 7 -81 -14 -100 -43 -40 -107 -10
-106 51 1 19 -2 42 -6 51 -11 22 1 36 39 48 1 1 1 -2 1 -6z m436 -8 c30 -9 53
-55 44 -87 -12 -44 -38 -63 -86 -63 -69 0 -101 53 -70 118 18 40 55 50 112 32z
m454 -7 c5 -13 5 -30 1 -38 -11 -23 -1 -40 24 -40 19 0 23 -5 22 -30 -1 -23
-5 -29 -21 -28 -11 0 -32 -4 -47 -10 -36 -15 -64 14 -53 55 4 15 8 42 8 58 3
51 50 74 66 33z m275 10 c4 3 6 0 6 -6 0 -6 -13 -13 -30 -17 -41 -9 -46 -22
-10 -30 31 -7 32 -28 2 -23 -13 2 -18 -6 -20 -29 -3 -30 -1 -33 22 -33 14 0
26 -4 26 -9 0 -11 -62 -21 -72 -12 -11 10 -16 149 -6 159 5 5 25 6 43 2 19 -4
36 -5 39 -2z m369 -20 c14 -16 15 -23 6 -29 -7 -4 -18 -2 -23 5 -31 38 -96 16
-96 -32 0 -35 9 -47 39 -55 25 -6 61 7 61 22 0 5 -13 14 -30 19 -21 8 -28 16
-24 26 7 18 24 21 24 5 0 -7 11 -9 26 -6 56 10 38 -64 -22 -89 -33 -14 -37
-13 -64 6 -40 29 -49 48 -39 83 5 17 7 33 4 35 -7 7 19 29 41 35 33 9 78 -2
97 -25z m524 8 c-2 -6 -16 -10 -31 -10 -34 2 -32 -29 2 -34 32 -5 27 -22 -7
-22 -25 0 -28 -3 -23 -25 4 -25 34 -50 45 -39 3 3 8 0 12 -6 5 -8 -7 -10 -39
-9 l-46 3 0 68 c0 45 -4 68 -12 68 -21 0 0 12 34 19 40 9 70 3 65 -13z m128
-6 c6 -19 -3 -51 -18 -61 -5 -4 -2 -20 8 -39 21 -41 13 -49 -18 -16 l-25 26
-6 -25 c-16 -62 -35 7 -28 97 2 29 8 37 25 40 34 5 56 -2 62 -22z m71 -48 c1
-66 -8 -104 -20 -91 -5 5 -10 108 -7 152 1 10 7 17 14 14 8 -2 12 -27 13 -75z
m191 -5 c-2 -86 -14 -104 -40 -64 -30 46 -77 92 -78 77 -2 -33 -7 -85 -8 -93
-1 -5 -5 -5 -11 -2 -14 9 -13 155 1 155 6 0 20 -11 31 -25 11 -14 27 -25 35
-25 9 0 13 -3 10 -6 -8 -8 11 -44 23 -44 5 0 8 13 8 30 -1 18 -5 27 -12 23 -6
-3 -5 0 2 8 6 7 12 20 12 29 0 9 7 17 15 17 12 0 14 -16 12 -80z m156 71 c30
-17 38 -31 26 -43 -6 -6 -13 -5 -18 3 -10 17 -66 19 -86 2 -18 -15 -20 -50 -2
-73 17 -25 62 -31 81 -11 20 20 12 34 -20 34 -14 0 -24 6 -24 14 0 17 14 28
24 19 4 -4 16 -8 29 -10 12 -2 25 -7 30 -12 13 -13 -22 -81 -38 -75 -7 3 -22
1 -32 -4 -24 -13 -64 3 -70 28 -3 11 -9 20 -13 20 -16 0 -17 49 -1 66 9 9 10
14 4 10 -8 -5 -11 -2 -7 7 12 33 78 46 117 25z m-982 -10 c1 -7 0 -17 -1 -23
-1 -5 -3 -34 -4 -63 -3 -49 -10 -71 -20 -61 -7 7 -14 132 -9 147 3 6 11 12 19
12 8 0 15 -6 15 -12z m77 -13 c11 -14 26 -25 33 -25 7 0 9 -3 6 -6 -6 -6 29
-44 40 -44 3 0 4 15 3 33 -3 53 -1 64 14 64 9 0 14 -10 14 -29 -1 -15 -6 -28
-12 -28 -8 0 -8 -2 0 -8 6 -4 10 -25 10 -47 -1 -45 -20 -50 -46 -13 -20 30
-59 68 -69 68 -4 0 -7 -10 -8 -22 -1 -68 -4 -81 -12 -72 -13 13 -19 134 -6
126 6 -3 4 2 -4 11 -12 15 -11 17 2 17 9 0 24 -11 35 -25z m235 11 c-1 -6 -15
-12 -30 -14 -33 -4 -37 -7 -28 -21 3 -6 17 -11 31 -11 13 0 24 -4 24 -10 0 -5
-11 -10 -24 -10 -16 0 -27 -7 -31 -20 -9 -27 1 -40 31 -40 13 0 24 -5 24 -11
0 -6 -10 -9 -22 -8 -13 2 -29 0 -36 -4 -16 -11 -20 3 -26 91 l-5 73 47 -3 c26
-2 46 -7 45 -12z"/>
<path d="M1882 1489 c-7 -10 -12 -32 -12 -49 0 -24 6 -33 26 -40 31 -12 37
-12 30 -2 -3 5 5 8 17 8 19 -1 22 5 25 42 3 41 2 42 -22 38 -15 -3 -25 0 -23
6 4 19 -29 16 -41 -3z"/>
<path d="M2522 1490 c-11 -12 -19 -27 -18 -33 6 -32 18 -56 32 -61 11 -4 15
-2 11 8 -4 10 2 13 27 9 30 -4 32 -2 34 31 2 28 -1 36 -14 36 -10 0 -25 7 -35
16 -16 14 -19 13 -37 -6z"/>
<path d="M3009 1438 c-4 -14 -4 -48 0 -48 17 1 31 19 25 33 -5 14 -22 24 -25
15z"/>
<path d="M4287 1495 c-3 -7 3 -15 14 -18 11 -3 19 0 19 8 0 18 -27 27 -33 10z"/>
<path d="M3415 2438 c-3 -7 -6 -53 -7 -103 l-3 -89 -35 -1 c-35 0 -35 0 -36
-46 0 -45 1 -47 28 -45 15 1 33 -1 38 -4 6 -4 11 -92 13 -226 l2 -219 43 -3
c38 -2 42 0 43 20 1 13 2 111 3 220 0 108 5 200 9 204 5 5 29 9 55 9 l47 0 0
45 0 45 -44 2 c-69 3 -68 1 -63 98 3 66 1 90 -10 96 -20 13 -78 11 -83 -3z"/>
<path d="M3925 2276 c-84 -30 -115 -85 -115 -202 0 -90 10 -127 43 -162 51
-55 53 -55 446 -56 409 -1 414 -1 467 70 28 36 29 42 29 144 0 96 -2 110 -24
142 -50 73 -51 73 -455 74 -239 1 -371 -3 -391 -10z m775 -34 c51 -25 69 -64
71 -157 1 -44 -1 -91 -5 -105 -12 -38 -56 -79 -96 -89 -49 -13 -410 -13 -410
-1 0 6 4 10 10 10 5 0 19 19 31 42 16 32 22 63 23 129 3 106 22 151 76 173 52
22 254 21 300 -2z m-453 -59 c7 -19 -15 -43 -41 -43 -24 0 -33 34 -15 56 12
15 49 6 56 -13z m-282 -44 c8 -58 12 -59 21 -3 8 50 10 54 40 54 27 0 43 -29
45 -78 0 -24 1 -25 9 -7 5 11 9 35 9 53 1 30 3 32 36 32 40 0 40 2 20 -70 -8
-30 -18 -71 -21 -90 -8 -50 -19 -64 -48 -66 -19 -1 -28 5 -32 21 -8 33 -12 58
-13 79 -1 11 -3 17 -5 15 -4 -4 -17 -73 -19 -96 0 -14 0 -14 -39 -17 -25 -3
-27 0 -47 88 -12 50 -24 101 -27 114 -6 20 -3 22 29 22 35 0 35 -1 42 -51z
m276 -26 c1 -20 1 -122 0 -140 -1 -7 -13 -11 -28 -10 -28 2 -28 3 -31 85 l-3
82 31 0 c21 0 30 -5 31 -17z"/>
<path d="M4643 2193 c-20 -8 -15 -40 7 -46 27 -7 47 18 30 38 -13 16 -17 17
-37 8z"/>
<path d="M4411 2168 c-5 -13 -6 -155 -2 -190 1 -5 12 -8 26 -8 22 0 25 4 25
36 0 34 2 35 33 34 72 -4 87 -1 87 20 0 21 -7 23 -78 21 -42 -1 -43 0 -40 27
3 28 4 28 96 31 25 1 32 5 32 21 0 23 2 22 -99 24 -61 1 -75 -2 -80 -16z"/>
<path d="M4636 2122 c-3 -3 -6 -38 -6 -79 0 -72 1 -73 25 -73 26 0 26 0 23 77
-2 62 -6 77 -20 79 -9 1 -19 -1 -22 -4z"/>
<path d="M2423 2257 c-17 -7 -43 -22 -56 -34 -27 -23 -37 -21 -37 9 0 15 -7
17 -42 15 l-43 -2 -2 -60 c0 -33 -2 -64 -3 -70 -4 -20 0 -128 4 -132 3 -3 1
-15 -4 -28 -5 -13 -6 -26 -3 -29 8 -8 8 -74 0 -82 -3 -3 -3 -12 0 -20 3 -8 6
-38 7 -67 l1 -52 42 -2 41 -2 4 172 c3 155 5 177 26 219 36 72 79 93 159 74
49 -11 55 -40 55 -248 0 -101 2 -191 4 -200 4 -13 16 -16 50 -15 l46 1 -5 201
c-2 110 -7 211 -10 225 -8 30 -28 70 -42 86 -38 40 -137 61 -192 41z"/>
<path d="M1600 2252 c-13 -2 -35 -13 -49 -23 -30 -24 -41 -24 -41 0 0 16 -7
19 -42 17 l-43 -1 -2 -250 c-1 -137 0 -260 2 -272 4 -19 11 -22 40 -20 19 2
37 5 39 8 3 3 6 76 6 163 2 170 14 232 54 273 27 29 71 36 107 18 49 -26 52
-38 51 -265 0 -96 4 -180 9 -186 6 -7 25 -12 44 -12 31 0 35 3 36 27 0 14 2
98 3 186 2 174 14 222 57 246 34 18 80 18 111 0 36 -20 41 -58 41 -281 l-1
-176 47 1 46 0 1 185 c0 211 -8 267 -45 308 -38 43 -67 54 -135 55 -62 0 -107
-16 -141 -50 -15 -15 -19 -15 -29 -2 -28 36 -109 61 -166 51z"/>
<path d="M2942 2245 c-123 -37 -192 -140 -188 -280 1 -55 8 -83 29 -125 96
-187 366 -192 481 -9 16 25 15 26 -23 46 l-38 20 -34 -43 c-98 -125 -297 -85
-324 66 l-6 36 213 -2 c117 -1 218 1 225 3 20 8 0 113 -32 168 -62 108 -183
155 -303 120z m135 -80 c30 -7 81 -52 99 -87 9 -16 14 -32 12 -34 -6 -6 -328
-7 -334 -1 -18 17 44 94 96 120 24 12 80 13 127 2z"/>
<path d="M3944 1792 c-12 -9 -11 -112 2 -113 5 0 11 10 14 23 5 21 12 24 39
20 5 -1 7 -11 4 -22 -4 -14 0 -20 11 -20 14 0 17 9 15 55 -2 36 -7 56 -17 60
-11 4 -13 -1 -9 -20 4 -22 1 -26 -17 -23 -12 2 -21 10 -21 20 0 21 -8 29 -21
20z"/>
<path d="M4073 1793 c-18 -6 -27 -67 -14 -92 14 -24 55 -28 77 -7 18 19 18 70
0 85 -16 14 -46 20 -63 14z m53 -46 c-4 -31 -14 -47 -31 -47 -18 0 -27 28 -15
51 16 28 49 25 46 -4z"/>
<path d="M4170 1792 c-17 -6 -11 -22 9 -22 15 0 18 -7 16 -45 -2 -33 1 -45 11
-45 10 0 14 13 14 45 0 33 4 45 15 45 8 0 15 6 15 13 0 11 -54 17 -80 9z"/>
<path d="M4282 1788 c-19 -19 -14 -36 16 -55 15 -9 29 -19 32 -21 2 -1 -2 -7
-10 -12 -9 -5 -19 -5 -27 2 -8 6 -17 8 -21 4 -4 -4 1 -14 11 -21 24 -17 58 -6
68 23 7 18 3 25 -21 37 -17 9 -30 23 -30 33 1 15 2 15 13 2 14 -18 37 -24 37
-10 0 10 -32 30 -47 30 -5 0 -14 -5 -21 -12z"/>
<path d="M4379 1792 c-8 -60 -5 -112 7 -112 8 0 14 10 14 25 0 15 5 23 13 20
17 -7 33 6 41 33 8 24 2 28 -46 36 -16 3 -28 2 -29 -2z m46 -42 c-5 -8 -11 -8
-17 -2 -6 6 -7 16 -3 22 5 8 11 8 17 2 6 -6 7 -16 3 -22z"/>
<path d="M4494 1786 c-9 -7 -14 -18 -10 -24 3 -5 1 -12 -5 -14 -22 -7 5 -61
34 -69 46 -12 80 53 48 93 -21 26 -44 30 -67 14z m56 -50 c0 -22 -18 -39 -34
-33 -19 8 -21 48 -4 65 10 10 15 9 25 -5 7 -9 13 -22 13 -27z"/>
<path d="M4585 1792 c-8 -8 -6 -22 3 -21 25 4 30 -4 28 -46 -2 -36 1 -45 14
-45 13 0 16 9 14 45 -2 34 1 45 13 45 8 0 13 5 11 12 -4 12 -73 20 -83 10z"/>
</g>
</svg>
